# xmcd CD database file
#
# Track frame offsets:
#	187
#	19080
#	32580
#	45322
#	58595
#	73515
#	87047
#	101767
#	115880
#	133715
#	148515
#	163092
#	176537
#	189080
#	203500
#	217420
#	231027
#	248090
#	264870
#	275132
#	287617
#	301197
#
# Disc length: 4200 seconds
#
# Revision: 0
# Processed by: cddbd v1.5PL3 Copyright (c) Steve Scherf et al.
# Submitted via: CDex 1.51
#
DISCID=32106616
DTITLE=Jimmy Dorsey and His Orchestra 1939 1940 - 1939 to 1940
DYEAR=1940
DGENRE=Jazz
TTITLE0=John Silver
TTITLE1=On A Little Street In Singapore
TTITLE2=You're A Lucky Guy
TTITLE3=Shades of Twilight
TTITLE4=Romance
TTITLE5=Poor Ballerina
TTITLE6=One Sweet Letter From You
TTITLE7=Tomorrow Night
TTITLE8=Cherokee
TTITLE9=Once In A Lovetime
TTITLE10=You're The Greatest Discovery
TTITLE11=The Breeze And I 
TTITLE12=Do It Again
TTITLE13=Dixieland Detour
TTITLE14=I Can't Resist You
TTITLE15=At Least You Could Say Hello
TTITLE16=Let Me Dream
TTITLE17=On The Trail
TTITLE18=Now You Know
TTITLE19=Boog-it!
TTITLE20=[Shy Couldn't It Last] Last Night
TTITLE21=Major And Minor Stomp
EXTD=YEAR: 1940
EXTT0=
EXTT1=
EXTT2=
EXTT3=
EXTT4=
EXTT5=
EXTT6=
EXTT7=
EXTT8=
EXTT9=
EXTT10=
EXTT11=
EXTT12=
EXTT13=
EXTT14=
EXTT15=
EXTT16=
EXTT17=
EXTT18=
EXTT19=
EXTT20=
EXTT21=
PLAYORDER=
